<svg xmlns="http://www.w3.org/2000/svg" version="1.1" xmlns:xlink="http://www.w3.org/1999/xlink" xmlns:svgjs="http://svgjs.dev/svgjs" viewBox="0 0 2400 800"><defs><linearGradient x1="50%" y1="0%" x2="50%" y2="100%" id="sssurf-grad"><stop stop-color="hsl(162, 100%, 58%)" stop-opacity="1" offset="0%"></stop><stop stop-color="hsl(270, 73%, 53%)" stop-opacity="1" offset="100%"></stop></linearGradient></defs><g fill="url(#sssurf-grad)" transform="matrix(1,0,0,1,10.8282470703125,227.09280014038086)"><path d="M-10,10C33.75,15.416666666666666,114.58333333333334,45.166666666666664,200,36C285.41666666666663,26.833333333333336,316.66666666666663,-30.25,400,-34C483.33333333333337,-37.75,516.6666666666666,16.541666666666668,600,18C683.3333333333334,19.458333333333332,716.6666666666666,-32.625,800,-27C883.3333333333334,-21.375,916.6666666666666,44.375,1000,45C1083.3333333333333,45.625,1116.6666666666667,-23.583333333333332,1200,-24C1283.3333333333333,-24.416666666666668,1316.6666666666667,38.208333333333336,1400,43C1483.3333333333333,47.791666666666664,1516.6666666666667,-1.4166666666666665,1600,-1C1683.3333333333333,-0.5833333333333334,1716.6666666666667,46.25,1800,45C1883.3333333333333,43.75,1916.6666666666667,-9.083333333333334,2000,-7C2083.3333333333335,-4.916666666666666,2118.75,51.458333333333336,2200,55C2281.25,58.541666666666664,2296.25,-61.875,2390,10C2483.75,81.875,3252.0833333333335,214.58333333333331,2650,400C2047.9166666666665,585.4166666666667,156.25,795.8333333333334,-500,900" transform="matrix(1,0,0,1,0,35)" opacity="0.05"></path><path d="M-10,10C33.75,15.416666666666666,114.58333333333334,45.166666666666664,200,36C285.41666666666663,26.833333333333336,316.66666666666663,-30.25,400,-34C483.33333333333337,-37.75,516.6666666666666,16.541666666666668,600,18C683.3333333333334,19.458333333333332,716.6666666666666,-32.625,800,-27C883.3333333333334,-21.375,916.6666666666666,44.375,1000,45C1083.3333333333333,45.625,1116.6666666666667,-23.583333333333332,1200,-24C1283.3333333333333,-24.416666666666668,1316.6666666666667,38.208333333333336,1400,43C1483.3333333333333,47.791666666666664,1516.6666666666667,-1.4166666666666665,1600,-1C1683.3333333333333,-0.5833333333333334,1716.6666666666667,46.25,1800,45C1883.3333333333333,43.75,1916.6666666666667,-9.083333333333334,2000,-7C2083.3333333333335,-4.916666666666666,2118.75,51.458333333333336,2200,55C2281.25,58.541666666666664,2296.25,-61.875,2390,10C2483.75,81.875,3252.0833333333335,214.58333333333331,2650,400C2047.9166666666665,585.4166666666667,156.25,795.8333333333334,-500,900" transform="matrix(1,0,0,1,0,70)" opacity="0.21"></path><path d="M-10,10C33.75,15.416666666666666,114.58333333333334,45.166666666666664,200,36C285.41666666666663,26.833333333333336,316.66666666666663,-30.25,400,-34C483.33333333333337,-37.75,516.6666666666666,16.541666666666668,600,18C683.3333333333334,19.458333333333332,716.6666666666666,-32.625,800,-27C883.3333333333334,-21.375,916.6666666666666,44.375,1000,45C1083.3333333333333,45.625,1116.6666666666667,-23.583333333333332,1200,-24C1283.3333333333333,-24.416666666666668,1316.6666666666667,38.208333333333336,1400,43C1483.3333333333333,47.791666666666664,1516.6666666666667,-1.4166666666666665,1600,-1C1683.3333333333333,-0.5833333333333334,1716.6666666666667,46.25,1800,45C1883.3333333333333,43.75,1916.6666666666667,-9.083333333333334,2000,-7C2083.3333333333335,-4.916666666666666,2118.75,51.458333333333336,2200,55C2281.25,58.541666666666664,2296.25,-61.875,2390,10C2483.75,81.875,3252.0833333333335,214.58333333333331,2650,400C2047.9166666666665,585.4166666666667,156.25,795.8333333333334,-500,900" transform="matrix(1,0,0,1,0,105)" opacity="0.37"></path><path d="M-10,10C33.75,15.416666666666666,114.58333333333334,45.166666666666664,200,36C285.41666666666663,26.833333333333336,316.66666666666663,-30.25,400,-34C483.33333333333337,-37.75,516.6666666666666,16.541666666666668,600,18C683.3333333333334,19.458333333333332,716.6666666666666,-32.625,800,-27C883.3333333333334,-21.375,916.6666666666666,44.375,1000,45C1083.3333333333333,45.625,1116.6666666666667,-23.583333333333332,1200,-24C1283.3333333333333,-24.416666666666668,1316.6666666666667,38.208333333333336,1400,43C1483.3333333333333,47.791666666666664,1516.6666666666667,-1.4166666666666665,1600,-1C1683.3333333333333,-0.5833333333333334,1716.6666666666667,46.25,1800,45C1883.3333333333333,43.75,1916.6666666666667,-9.083333333333334,2000,-7C2083.3333333333335,-4.916666666666666,2118.75,51.458333333333336,2200,55C2281.25,58.541666666666664,2296.25,-61.875,2390,10C2483.75,81.875,3252.0833333333335,214.58333333333331,2650,400C2047.9166666666665,585.4166666666667,156.25,795.8333333333334,-500,900" transform="matrix(1,0,0,1,0,140)" opacity="0.53"></path><path d="M-10,10C33.75,15.416666666666666,114.58333333333334,45.166666666666664,200,36C285.41666666666663,26.833333333333336,316.66666666666663,-30.25,400,-34C483.33333333333337,-37.75,516.6666666666666,16.541666666666668,600,18C683.3333333333334,19.458333333333332,716.6666666666666,-32.625,800,-27C883.3333333333334,-21.375,916.6666666666666,44.375,1000,45C1083.3333333333333,45.625,1116.6666666666667,-23.583333333333332,1200,-24C1283.3333333333333,-24.416666666666668,1316.6666666666667,38.208333333333336,1400,43C1483.3333333333333,47.791666666666664,1516.6666666666667,-1.4166666666666665,1600,-1C1683.3333333333333,-0.5833333333333334,1716.6666666666667,46.25,1800,45C1883.3333333333333,43.75,1916.6666666666667,-9.083333333333334,2000,-7C2083.3333333333335,-4.916666666666666,2118.75,51.458333333333336,2200,55C2281.25,58.541666666666664,2296.25,-61.875,2390,10C2483.75,81.875,3252.0833333333335,214.58333333333331,2650,400C2047.9166666666665,585.4166666666667,156.25,795.8333333333334,-500,900" transform="matrix(1,0,0,1,0,175)" opacity="0.68"></path><path d="M-10,10C33.75,15.416666666666666,114.58333333333334,45.166666666666664,200,36C285.41666666666663,26.833333333333336,316.66666666666663,-30.25,400,-34C483.33333333333337,-37.75,516.6666666666666,16.541666666666668,600,18C683.3333333333334,19.458333333333332,716.6666666666666,-32.625,800,-27C883.3333333333334,-21.375,916.6666666666666,44.375,1000,45C1083.3333333333333,45.625,1116.6666666666667,-23.583333333333332,1200,-24C1283.3333333333333,-24.416666666666668,1316.6666666666667,38.208333333333336,1400,43C1483.3333333333333,47.791666666666664,1516.6666666666667,-1.4166666666666665,1600,-1C1683.3333333333333,-0.5833333333333334,1716.6666666666667,46.25,1800,45C1883.3333333333333,43.75,1916.6666666666667,-9.083333333333334,2000,-7C2083.3333333333335,-4.916666666666666,2118.75,51.458333333333336,2200,55C2281.25,58.541666666666664,2296.25,-61.875,2390,10C2483.75,81.875,3252.0833333333335,214.58333333333331,2650,400C2047.9166666666665,585.4166666666667,156.25,795.8333333333334,-500,900" transform="matrix(1,0,0,1,0,210)" opacity="0.84"></path><path d="M-10,10C33.75,15.416666666666666,114.58333333333334,45.166666666666664,200,36C285.41666666666663,26.833333333333336,316.66666666666663,-30.25,400,-34C483.33333333333337,-37.75,516.6666666666666,16.541666666666668,600,18C683.3333333333334,19.458333333333332,716.6666666666666,-32.625,800,-27C883.3333333333334,-21.375,916.6666666666666,44.375,1000,45C1083.3333333333333,45.625,1116.6666666666667,-23.583333333333332,1200,-24C1283.3333333333333,-24.416666666666668,1316.6666666666667,38.208333333333336,1400,43C1483.3333333333333,47.791666666666664,1516.6666666666667,-1.4166666666666665,1600,-1C1683.3333333333333,-0.5833333333333334,1716.6666666666667,46.25,1800,45C1883.3333333333333,43.75,1916.6666666666667,-9.083333333333334,2000,-7C2083.3333333333335,-4.916666666666666,2118.75,51.458333333333336,2200,55C2281.25,58.541666666666664,2296.25,-61.875,2390,10C2483.75,81.875,3252.0833333333335,214.58333333333331,2650,400C2047.9166666666665,585.4166666666667,156.25,795.8333333333334,-500,900" transform="matrix(1,0,0,1,0,245)" opacity="1"></path></g></svg>